<?xml version="1.0" encoding="UTF-8"?>
<svg version="1.1" xmlns="http://www.w3.org/2000/svg" width="1920" height="1920">
<path d="M0 0 C633.6 0 1267.2 0 1920 0 C1920 633.6 1920 1267.2 1920 1920 C1286.4 1920 652.8 1920 0 1920 C0 1286.4 0 652.8 0 0 Z " fill="#000000" transform="translate(0,0)"/>
<path d="M0 0 C99.33 0 198.66 0 301 0 C301 312.18 301 624.36 301 946 C294.56746978 941.90657168 288.42782062 937.99090069 282.4375 933.375 C276.71856852 929.02963208 270.95457298 924.75837579 265.125 920.5625 C264.37532959 920.02286621 263.62565918 919.48323242 262.85327148 918.92724609 C261.32986388 917.8314874 259.80618163 916.73611045 258.28222656 915.64111328 C254.51700953 912.93360484 250.75878552 910.21642636 247 907.5 C242.51393496 904.25863196 238.02695159 901.01858038 233.53515625 897.78515625 C221.00927476 888.76340071 208.57871665 879.61565101 196.17578125 870.42578125 C187.77873686 864.21145742 179.34664928 858.06181295 170.78076172 852.08154297 C166.80364909 849.30025473 162.89872011 846.4417135 159.02514648 843.51806641 C155.5921274 840.94464716 152.10729081 838.44361466 148.625 835.9375 C147.84825928 835.37732178 147.07151855 834.81714355 146.27124023 834.23999023 C143.08929202 831.94528214 139.906133 829.65226037 136.72216797 827.36035156 C127.3861848 820.63942663 118.09016851 813.86918049 108.83984375 807.03076172 C103.54670167 803.12334495 98.21423842 799.27746284 92.84790039 795.47143555 C89.24953022 792.91260624 85.70709247 790.29092438 82.1875 787.625 C77.48056343 784.07141875 72.70072659 780.64024996 67.875 777.25 C53.8621045 767.40471261 40.03518526 757.31211741 26.2578125 747.140625 C18.35769236 741.30933807 10.39712471 735.56210082 2.4375 729.8125 C1.28519897 728.98008789 1.28519897 728.98008789 0.10961914 728.13085938 C-3.78984543 725.31487128 -7.69149494 722.50200503 -11.59765625 719.6953125 C-18.80592897 714.51087711 -25.97898389 709.29145249 -33.0625 703.9375 C-39.10035564 699.3753491 -45.23720528 694.97836225 -51.43603516 690.63818359 C-57.64205516 686.28142506 -63.74597478 681.79439367 -69.84082031 677.28393555 C-77.43449381 671.66742734 -85.08761783 666.13582735 -92.75292969 660.61767578 C-102.63806414 653.5013241 -112.51394319 646.37395354 -122.32592773 639.15698242 C-127.11399228 635.63923364 -131.92885228 632.15972556 -136.75 628.6875 C-143.02916442 624.16391671 -149.27598012 619.59914256 -155.5 615 C-166.92309147 606.5599188 -178.43761813 598.24803419 -190 590 C-189.45584225 584.81349649 -188.61074324 580.1707369 -187 575.1875 C-186.78706299 574.52355225 -186.57412598 573.85960449 -186.35473633 573.17553711 C-183.80286607 565.27430115 -181.14326393 557.40724279 -178.50537109 549.53442383 C-175.65035709 541.0004528 -172.88968516 532.44009452 -170.16967773 523.86230469 C-168.22471373 517.75545346 -166.2319531 511.66660047 -164.1953125 505.58984375 C-163.95197174 504.86335632 -163.70863098 504.1368689 -163.45791626 503.3883667 C-162.26211722 499.82154341 -161.06198235 496.25624913 -159.85595703 492.69287109 C-157.30176453 485.11128215 -154.95766287 477.53040073 -152.88574219 469.79956055 C-152 467 -152 467 -150 464 C-147.78611565 463.63085651 -147.78611565 463.63085651 -144.9760437 463.63923645 C-143.91311096 463.63511246 -142.85017822 463.63098846 -141.7550354 463.6267395 C-140.5840329 463.63752533 -139.4130304 463.64831116 -138.20654297 463.65942383 C-136.36268005 463.65876671 -136.36268005 463.65876671 -134.48156738 463.65809631 C-131.10554596 463.65983148 -127.73007111 463.67490325 -124.35414648 463.69581819 C-120.82808375 463.71453918 -117.30201418 463.7163318 -113.77590942 463.71989441 C-107.09645407 463.72922839 -100.41714556 463.75386033 -93.73775494 463.78394288 C-86.13448822 463.81744493 -78.53121458 463.83396231 -70.92789245 463.84902918 C-55.28517651 463.88040882 -39.64260717 463.93319544 -24 464 C-24.30866051 465.59101839 -24.61997855 467.18152136 -24.93240356 468.77180481 C-25.10548098 469.65757108 -25.27855839 470.54333735 -25.45688057 471.45594501 C-26.15627477 474.73201507 -27.14906082 477.84661803 -28.2421875 481.01171875 C-28.45183136 481.62787552 -28.66147522 482.24403229 -28.87747192 482.87886047 C-29.53740727 484.81715834 -30.20526308 486.75256915 -30.875 488.6875 C-33.96919907 497.64649841 -36.78987037 506.57491341 -39.10986328 515.76879883 C-39.89837928 518.63111623 -40.833019 521.27474199 -42 524 C-44.74860534 530.43522678 -46.30275384 537.22907116 -48 544 C-47.46632813 544.24105469 -46.93265625 544.48210938 -46.3828125 544.73046875 C-43.35922087 546.34139872 -40.64109362 548.30420242 -37.875 550.3125 C-37.26881836 550.74908936 -36.66263672 551.18567871 -36.03808594 551.63549805 C-34.02339582 553.08758874 -32.01171625 554.54379283 -30 556 C-28.57049672 557.03150535 -27.14080541 558.06275016 -25.7109375 559.09375 C-22.68470891 561.27659245 -19.66013044 563.4616952 -16.63671875 565.6484375 C-13.60006814 567.84451263 -10.5610344 570.03721325 -7.51953125 572.2265625 C0.98992059 578.35497197 9.45739685 584.53619498 17.89208984 590.76708984 C25.4766884 596.36432174 33.1158833 601.88408627 40.76611328 607.39111328 C45.26309 610.62991947 49.75413826 613.87694436 54.24584961 617.12304688 C58.01750442 619.84818123 61.79148212 622.56997873 65.5703125 625.28515625 C72.78777742 630.47601572 79.96993752 635.70192377 87.0625 641.0625 C93.12457874 645.64130416 99.28031237 650.06561981 105.49975586 654.42773438 C120.36303688 664.85525232 135.0184382 675.58442197 149.59375 686.41015625 C150.39756104 687.00578369 151.20137207 687.60141113 152.02954102 688.21508789 C153.55523052 689.34601317 155.07935484 690.4790556 156.60131836 691.61499023 C164.26870948 697.2945078 172.11768601 702.58090913 180 708 C180 514.29 180 320.58 180 121 C108.06 121 36.12 121 -38 121 C-35.75207111 108.63639109 -35.75207111 108.63639109 -33.9765625 103.73046875 C-33.59717529 102.6638501 -33.21778809 101.59723145 -32.8269043 100.49829102 C-32.43027588 99.40572998 -32.03364746 98.31316895 -31.625 97.1875 C-28.75978241 89.12364252 -26.05968218 81.11434559 -23.81640625 72.85546875 C-23.0380338 70.1330273 -22.1264041 67.52243674 -21.125 64.875 C-19.15768498 59.65464439 -17.57604665 54.34796662 -16 49 C-14.20917822 42.92673009 -12.31615687 36.96386054 -10.06640625 31.04296875 C-8.24386192 25.84237524 -6.73205616 20.54443852 -5.19335938 15.25390625 C-4.95294922 14.4340625 -4.71253906 13.61421875 -4.46484375 12.76953125 C-4.254646 12.04354736 -4.04444824 11.31756348 -3.82788086 10.56958008 C-2.67877953 7.00299456 -1.31570438 3.50854501 0 0 Z " fill="#FDFDFD" transform="translate(650,487)"/>
<path d="M0 0 C39.93 0 79.86 0 121 0 C121 233.64 121 467.28 121 708 C132.35763286 699.89422803 132.35763286 699.89422803 143.6875 691.75 C144.79943726 690.94719604 144.79943726 690.94719604 145.93383789 690.12817383 C153.23727484 684.84501542 160.49037681 679.49429564 167.7421875 674.140625 C177.98218622 666.582212 188.31730576 659.15424745 198.63720703 651.70556641 C202.42534428 648.9711247 206.21264207 646.23552095 210 643.5 C211.4999957 642.41666072 212.99999571 641.3333274 214.5 640.25 C215.61375 639.445625 215.61375 639.445625 216.75 638.625 C223.5 633.75 223.5 633.75 225.74975586 632.12524414 C227.2506555 631.04121584 228.75146922 629.95706858 230.25219727 628.87280273 C233.98773967 626.17412345 237.72472254 623.47748688 241.46484375 620.78515625 C249.98003171 614.65183905 258.45450184 608.46739321 266.89428711 602.23071289 C272.97544905 597.74183637 279.09595509 593.31009187 285.23046875 588.89453125 C290.68083962 584.96607895 296.09667078 580.99285479 301.5 577 C307.66411649 572.44626602 313.84818194 567.92249272 320.0625 563.4375 C321.15195923 562.64762695 321.15195923 562.64762695 322.26342773 561.84179688 C326.17839311 559.00904877 330.1174704 556.2187932 334.09375 553.47265625 C334.92511475 552.89136963 335.75647949 552.31008301 336.61303711 551.71118164 C338.20982076 550.59567715 339.8145153 549.49138649 341.42797852 548.40014648 C345.4321375 545.62497268 345.4321375 545.62497268 348.16796875 541.70703125 C347.9052762 537.47340473 346.60712212 533.68727506 345.25 529.6875 C344.98445313 528.87087891 344.71890625 528.05425781 344.4453125 527.21289062 C343.20482187 523.43421163 341.89862398 519.69306932 340.47265625 515.98046875 C338.80597269 511.5962713 337.49698749 507.12647428 336.1875 502.625 C333.97481135 495.10494347 331.61488641 487.65629967 329.00463867 480.26416016 C327.11987848 474.79647018 326.1632547 469.81627351 325 464 C366.58 464 408.16 464 451 464 C452.95830179 467.91660358 454.47079017 471.0565801 455.74194336 475.11206055 C456.04902725 476.08230667 456.35611115 477.0525528 456.67250061 478.05220032 C456.99584885 479.0907164 457.31919708 480.12923248 457.65234375 481.19921875 C458.36433479 483.45494244 459.07641456 485.71063813 459.78857422 487.96630859 C460.33611359 489.70965485 460.33611359 489.70965485 460.89471436 491.48822021 C462.6635967 497.1084192 464.45915391 502.72005065 466.25390625 508.33203125 C466.97070963 510.57486771 467.68750648 512.81770626 468.40429688 515.06054688 C468.9378479 516.72911743 468.9378479 516.72911743 469.48217773 518.43139648 C470.2051538 520.69410734 470.92715175 522.95713094 471.64819336 525.22045898 C475.50778969 537.33286476 479.40243547 549.42107476 483.68238831 561.39265442 C485.57607482 566.70023942 487.30338831 572.04441375 488.9375 577.4375 C489.14825668 578.12591476 489.35901337 578.81432953 489.57615662 579.52360535 C491.75061297 586.96752362 491.75061297 586.96752362 491 590 C488.80545324 592.17221672 486.27350923 593.76689227 483.6875 595.4375 C482.11571078 596.49781423 480.54545302 597.56040142 478.9765625 598.625 C478.15575195 599.17671875 477.33494141 599.7284375 476.48925781 600.296875 C472.43491886 603.07081267 468.50230712 606.00424269 464.5625 608.9375 C454.69337242 616.2459565 444.73805823 623.43117404 434.77050781 630.60449219 C425.41331423 637.34085255 416.09657672 644.12716655 406.82446289 650.98022461 C401.69744042 654.76439264 396.53495606 658.49209199 391.33789062 662.17919922 C386.43398246 665.6680844 381.5898023 669.2353819 376.75 672.8125 C366.81321696 680.15543556 356.79887465 687.38740646 346.77050781 694.60449219 C338.31406964 700.6923875 329.88111091 706.80868741 321.5 713 C313.12051542 719.19011119 304.68892637 725.30474309 296.23388672 731.39111328 C292.48640231 734.09012118 288.74338799 736.79531494 285 739.5 C280.51389621 742.74131453 276.02695169 745.98141954 271.53515625 749.21484375 C262.92488525 755.41675913 254.35796298 761.67307905 245.82446289 767.98022461 C240.69744042 771.76439264 235.53495606 775.49209199 230.33789062 779.17919922 C225.43398246 782.6680844 220.5898023 786.2353819 215.75 789.8125 C207.29190666 796.06273552 198.78227528 802.23794868 190.24707031 808.38232422 C180.97529695 815.05711456 171.7046165 821.7327699 162.5 828.5 C152.30019312 835.99824383 142.04361669 843.41977956 131.72583008 850.75488281 C124.86384729 855.63370926 118.07950037 860.61224625 111.30883789 865.61694336 C105.16368986 870.15490825 98.97964099 874.63602354 92.77929688 879.09814453 C87.2409067 883.08961339 81.73982912 887.12956151 76.25 891.1875 C69.73140208 896.00405241 63.17551521 900.76023076 56.5703125 905.45703125 C46.0577435 912.93428103 35.62540882 920.5213069 25.25 928.1875 C19.50454287 932.43166413 13.74591943 936.65478998 7.9375 940.8125 C7.35967773 941.22717529 6.78185547 941.64185059 6.18652344 942.0690918 C4.16683021 943.50850925 2.22210182 944.88894909 0 946 C0 633.82 0 321.64 0 0 Z " fill="#FDFDFD" transform="translate(969,487)"/>
</svg>
